<svg height="512pt" viewBox="0 0 512.08417 512" width="512pt" xmlns="http://www.w3.org/2000/svg"><path d="m425.96875 230.414062c-3.378906-13.238281-22.507812-23.5-58.527344-31.222656-42.347656-8.09375-85.398437-11.917968-128.507812-11.414062-43.113282-.503906-86.164063 3.320312-128.511719 11.414062-39.847656 8.542969-59.222656 20.15625-59.222656 35.519532-.25 51.488281 17.292969 101.484374 49.664062 141.527343-66.914062 9.9375-100.863281 25.453125-100.863281 46.203125 0 51.085938 102.722656 89.601563 238.933594 89.601563 136.210937 0 238.933594-38.515625 238.933594-89.601563 0-13.023437-13.113282-23.78125-39.820313-32.628906 49.042969-17.789062 73.953125-42.605469 73.953125-74.035156 1.082031-23.671875-8.332031-46.609375-25.734375-62.695313-17.070313-13.960937-38.257813-21.925781-60.296875-22.667969zm-4.097656 51.082032c12.316406.351562 24.121094 5.027344 33.339844 13.203125 5.789062 6.453125 7.042968 15.789062 3.164062 23.539062-4.726562 9.644531-16.6875 15.433594-28.914062 20.261719-10.914063 4.238281-22.09375 7.757812-33.46875 10.535156 12.277343-20.9375 21.019531-43.757812 25.875-67.539062zm-353.605469-46.777344c.210937-2.003906 8.8125-11.09375 47.054687-19.113281 40.753907-7.628907 82.15625-11.234375 123.613282-10.761719 41.457031-.472656 82.859375 3.132812 123.613281 10.757812 38.195313 8.007813 46.824219 17.089844 47.054687 19.109376-.054687.207031-.140624.40625-.257812.589843l-.007812.019531c-1.058594 1.84375-6.015626 6.429688-20.785157 11.542969-21.679687-23.621093-126.644531-24.953125-149.617187-24.953125s-127.929688 1.332032-149.609375 24.949219c-16.757813-5.792969-20.921875-10.957031-21.058594-12.140625zm298.457031 18.152344c-4.230468.949218-8.621094 1.859375-13.269531 2.703125-.847656.15625-1.78125.285156-2.644531.4375-4.125.71875-8.363282 1.410156-12.765625 2.046875-1.855469.269531-3.808594.503906-5.710938.757812-3.570312.476563-7.179687.941406-10.898437 1.355469-2.203125.25-4.460938.476563-6.714844.703125-3.605469.367188-7.261719.707031-10.972656 1.027344-2.375.199218-4.769532.390625-7.179688.566406-3.800781.28125-7.65625.527344-11.546875.75-2.394531.140625-4.777343.285156-7.203125.402344-4.285156.207031-8.628906.359375-12.992187.5-2.082031.066406-4.136719.15625-6.230469.207031-6.496094.152344-13.050781.246094-19.660156.246094s-13.164063-.09375-19.660156-.25c-2.089844-.050781-4.136719-.140625-6.207032-.203125-4.382812-.140625-8.746094-.296875-13.042968-.503906-2.398438-.117188-4.757813-.253907-7.125-.398438-3.921876-.226562-7.808594-.472656-11.636719-.753906-2.386719-.175782-4.753907-.363282-7.101563-.5625-3.753906-.316406-7.449218-.660156-11.089844-1.035156-2.210937-.222657-4.425781-.445313-6.589843-.691407-3.804688-.425781-7.496094-.898437-11.144531-1.386719-1.816407-.242187-3.679688-.464843-5.453126-.722656-4.664062-.671875-9.171874-1.394531-13.519531-2.167968-.609375-.109376-1.277343-.199219-1.875-.3125-4.675781-.847657-9.085937-1.761719-13.335937-2.714844 17.925781-6.339844 60.859375-13.894532 127.78125-13.894532s109.867187 7.558594 127.789062 13.894532zm-297.207031 4.085937c7.082031 3.558594 14.488281 6.421875 22.117187 8.550781 34.382813 10.101563 89.449219 16.132813 147.300782 16.132813 14.460937 0 28.75-.375 42.582031-1.097656 35.339844-1.203125 70.449219-6.238281 104.703125-15.023438 7.660156-2.140625 15.09375-5.019531 22.195312-8.597656-9.816406 95.4375-82.058593 169.789063-169.480468 169.789063-43.558594-.359376-85.082032-18.476563-114.976563-50.160157-30.988281-32.667969-50.152343-74.769531-54.4375-119.59375zm234.128906 174.011719c29.414063 4.109375 41.898438 9.980469 45.4375 12.839844-6.398437 5.496094-36.585937 14.839844-91.445312 16.761718l-.609375.011719c-4.957032.148438-10.085938.199219-15.214844.222657-.953125.011718-1.898438.050781-2.878906.039062-.066406 0-.136719 0-.203125 0-6.027344 0-12.082031-.085938-18.015625-.257812h-.066406c-55.210938-1.917969-85.460938-11.273438-91.863282-16.773438 3.542969-2.867188 16.070313-8.757812 45.625-12.867188 41.378906 17.101563 87.847656 17.113282 129.234375.027344zm-286.578125-8.527344c0-3.867187 16.875-20.242187 97.929688-30.929687 10.320312 10.167969 21.78125 19.109375 34.160156 26.644531-38.066406 8.769531-38.222656 21.097656-38.222656 25.621094.058594 3.535156 1.378906 6.933594 3.71875 9.582031-64.371094-8.527344-97.585938-22.484375-97.585938-30.917969zm221.867188 72.535156c-86.339844 0-155.371094-16.671874-192.324219-37.875 47.738281 14.269532 122.058594 19.769532 173.726563 20.550782 6.058593.167968 12.289062.253906 18.597656.253906 2.167968 0 4.324218 0 6.144531-.085938 2.160156 0 4.238281 0 6.058594-.085937l2.550781-.039063c1.214844-.027343 2.523438-.015624 3.71875-.050781 51.75-.78125 126.109375-6.28125 173.855469-20.550781-36.949219 21.207031-105.984375 37.882812-192.328125 37.882812zm221.867187-72.535156c0 8.433594-33.195312 22.382813-97.582031 30.914063 2.339844-2.652344 3.65625-6.046875 3.714844-9.578125 0-4.523438-.15625-16.820313-38.089844-25.589844 3.230469-1.972656 6.386719-4.074219 9.5-6.246094 23.25-2.820312 46.304688-7.078125 69.027344-12.75 43.496094 9.714844 53.429687 20.28125 53.429687 23.25zm-54.929687-40.425781c-.273438.042969-.546875.101563-.8125.171875-12.835938 3.347656-26.808594 6.238281-41.558594 8.753906 6.679688-6.621094 12.886719-13.695312 18.578125-21.179687 18.289063-3.601563 36.238281-8.746094 53.652344-15.382813 15.414062-6.082031 30.679687-13.765625 37.96875-28.617187 7.085937-14.261719 4.5625-31.425781-6.328125-43.042969-11.691406-10.789062-26.769532-17.175781-42.65625-18.066406.730468-5.632813 1.253906-11.332032 1.566406-17.101563 17.746094.707031 34.792969 7.109375 48.613281 18.261719 13.699219 12.898438 21.03125 31.171875 20.039063 49.964844 0 35.082031-48.265625 55.363281-89.0625 66.238281zm0 0"/><path d="m110.933594 298.710938c0-4.714844-3.820313-8.535157-8.535156-8.535157-4.710938 0-8.53125 3.820313-8.53125 8.535157 0 4.710937 3.820312 8.53125 8.53125 8.53125.84375-.007813 1.679687-.152344 2.476562-.425782 3.59375-1.058594 6.058594-4.359375 6.058594-8.105468zm0 0"/><path d="m157.398438 382.609375c2.539062 1.722656 5.804687 1.953125 8.558593.605469 2.753907-1.351563 4.570313-4.078125 4.757813-7.140625.1875-3.058594-1.28125-5.988281-3.847656-7.664063-17.703126-11.484375-32.734376-26.636718-44.082032-44.425781-1.574218-2.671875-4.46875-4.28125-7.570312-4.207031-3.097656.078125-5.910156 1.828125-7.347656 4.578125-1.4375 2.746093-1.273438 6.054687.433593 8.644531 12.625 19.863281 29.367188 36.78125 49.097657 49.609375zm0 0"/><path d="m202.300781 53.742188c-1.601562-1.601563-3.769531-2.5-6.035156-2.5-2.261719 0-4.433594.898437-6.03125 2.5-7.585937 8.746093-11.535156 20.066406-11.035156 31.632812-.5 11.519531 3.414062 22.796875 10.9375 31.535156 4.335937 5.605469 6.511719 12.585938 6.128906 19.664063.375 7.070312-1.796875 14.042969-6.117187 19.652343-3.230469 3.367188-3.15625 8.707032.164062 11.984376 3.324219 3.277343 8.664062 3.277343 11.988281-.003907 7.582031-8.746093 11.53125-20.0625 11.03125-31.632812.5-11.519531-3.410156-22.796875-10.9375-31.53125-4.332031-5.609375-6.507812-12.589844-6.128906-19.667969-.371094-7.03125 1.765625-13.964844 6.035156-19.566406 1.601563-1.597656 2.5-3.769532 2.5-6.03125 0-2.265625-.898437-4.433594-2.5-6.035156zm0 0"/><path d="m253.5 2.542969c-1.601562-1.601563-3.769531-2.5000002-6.035156-2.5000002-2.261719 0-4.433594.8984372-6.03125 2.5000002-7.585938 8.746093-11.53125 20.066406-11.035156 31.632812-.496094 11.519531 3.414062 22.796875 10.9375 31.53125 4.335937 5.609375 6.511718 12.589844 6.128906 19.667969.375 7.070312-1.792969 14.042969-6.113282 19.652344-3.234374 3.367187-3.160156 8.707031.164063 11.984375 3.320313 3.277343 8.660156 3.277343 11.984375-.003907 7.585938-8.746093 11.53125-20.066406 11.035156-31.632812.496094-11.519531-3.414062-22.796875-10.9375-31.53125-4.335937-5.609375-6.511718-12.589844-6.132812-19.667969-.371094-7.03125 1.765625-13.96875 6.035156-19.566406 1.601562-1.601563 2.5-3.769531 2.5-6.035156 0-2.261719-.898438-4.433594-2.5-6.03125zm0 0"/><path d="m304.699219 53.742188c-1.597657-1.601563-3.769531-2.5-6.03125-2.5-2.265625 0-4.433594.898437-6.035157 2.5-7.585937 8.746093-11.53125 20.066406-11.03125 31.632812-.5 11.519531 3.410157 22.796875 10.9375 31.535156 4.332032 5.605469 6.507813 12.585938 6.128907 19.664063.371093 7.070312-1.796875 14.042969-6.117188 19.652343-3.234375 3.367188-3.160156 8.707032.164063 11.984376 3.320312 3.277343 8.664062 3.277343 11.984375-.003907 7.585937-8.746093 11.535156-20.0625 11.035156-31.632812.5-11.519531-3.414063-22.796875-10.9375-31.53125-4.335937-5.609375-6.511719-12.589844-6.128906-19.667969-.375-7.03125 1.761719-13.964844 6.03125-19.566406 1.601562-1.597656 2.5-3.769532 2.5-6.03125 0-2.265625-.898438-4.433594-2.5-6.035156zm0 0"/></svg>