<svg height="512pt" viewBox="0 -108 512 512" width="512pt" xmlns="http://www.w3.org/2000/svg"><path d="m504.5 280.5625h-31.992188c1.660157-2.703125 2.9375-5.6875 3.742188-8.898438l19.492188-77.976562c.5625-2.242188.058593-4.613281-1.363282-6.433594-1.417968-1.820312-3.601562-2.886718-5.910156-2.886718h-13.957031l3.226562-3.226563c2.929688-2.929687 2.929688-7.679687 0-10.609375-2.929687-2.925781-7.675781-2.925781-10.605469 0l-13.835937 13.835938h-3.777344l6.222657-31.109376c.8125-4.0625-1.820313-8.011718-5.882813-8.824218-4.066406-.8125-8.011719 1.824218-8.824219 5.882812l-5.675781 28.371094c-.304687-.15625-.609375-.308594-.90625-.460938-3.121094-1.566406-6.066406-3.046874-7.761719-4.738281-1.691406-1.691406-3.171875-4.640625-4.742187-7.761719-.484375-.972656-.984375-1.964843-1.511719-2.964843 8.070312-10.496094 11.472656-23.664063 9.113281-35.847657-.582031-3.007812-2.929687-5.355468-5.9375-5.9375-1.054687-.203124-2.113281-.355468-3.171875-.472656l49.742188-51.644531c5.019531-5.214844 7.707031-12.355469 7.371094-19.585937-.335938-7.230469-3.671876-14.089844-9.160157-18.8125-5.484375-4.726563-12.757812-7.015626-19.960937-6.277344-7.203125.738281-13.867188 4.453125-18.277344 10.1875l-75.457031 98.101562c-2.328125-4.585937-5.40625-8.851562-9.136719-12.582031-11.164062-11.164063-26.390625-16.171875-40.738281-13.398437-3.003907.582031-5.355469 2.933593-5.9375 5.941406-2.402344 12.410156 1.035156 25.480468 9.234375 36.011718-1.96875.453126-3.914063 1.164063-5.78125 2.246094-2.203125 1.273438-4.003906 2.882813-5.539063 4.675782-1.054687-1.605469-2.0625-3.597657-3.105469-5.675782-2.710937-5.390625-5.78125-11.5-11.878906-15.03125-1.308594-.757812-2.726562-1.355468-4.261718-1.820312.664062-4.628906.585937-9.332032-.308594-13.941406-.582032-3.003907-2.929688-5.355469-5.9375-5.9375-11.765625-2.277344-24.128906.695312-34.359375 8l-6.300781-12.605469c-1.851563-3.707031-6.355469-5.207031-10.0625-3.355469-3.703126 1.855469-5.207032 6.359375-3.355469 10.0625l3.265625 6.53125c-3.925782 1.402344-7.398438 3.6875-10.601563 5.792969-2.851562 1.878906-5.546875 3.652343-7.753906 4.246093-2.398437.640626-5.738281.453126-9.273437.257813-5.984376-.335937-12.765626-.710937-18.785157 2.769531-1.691406.980469-3.144531 2.164063-4.429687 3.46875l5.65625-82.015625c.144531-2.074219-.578125-4.117187-2-5.636719-1.417969-1.519531-3.402344-2.378906-5.480469-2.378906h-48.078125l4.898438-26.136718c.757812-4.035157 4.285156-6.960938 8.386718-6.960938h66.855469c4.144531 0 7.5-3.359375 7.5-7.5s-3.355469-7.5-7.5-7.5h-66.855469c-11.316406 0-21.042968 8.074219-23.128906 19.195312l-5.417969 28.902344h-80.957031c-2.078125 0-4.0625.863282-5.480469 2.378906-1.417969 1.519532-2.144531 3.5625-2 5.636719l15.476563 224.449219h-24.027344c-4.140625 0-7.5 3.359375-7.5 7.5 0 4.144531 3.359375 7.5 7.5 7.5h497c4.140625 0 7.5-3.355469 7.5-7.5 0-4.140625-3.359375-7.5-7.5-7.5zm-62.457031-237.042969c1.9375-2.523437 4.75-4.089843 7.917969-4.414062 3.15625-.324219 6.234374.640625 8.644531 2.71875 2.410156 2.074219 3.816406 4.96875 3.964843 8.148437.148438 3.175782-.984374 6.1875-3.191406 8.480469l-64.558594 67.023437c-.035156.035157-.0625.074219-.09375.109376-4.261718 2.261718-8.265624 5.199218-11.851562 8.785156-2.964844 2.964844-5.496094 6.226562-7.582031 9.730468-.34375-.226562-.691407-.453124-1.039063-.683593-1.9375-1.273438-3.96875-2.613281-6.144531-3.78125zm-26.757813 91.726563c-.105468 5.351562-1.792968 10.796875-4.847656 15.671875-.125-.074219-.242188-.152344-.367188-.226563-6.019531-3.484375-12.800781-3.105468-18.789062-2.773437-.148438.007812-.292969.015625-.441406.023437.816406-1.023437 1.695312-2.015625 2.640625-2.964844 6.074219-6.074218 14.058593-9.558593 21.804687-9.730468zm-80.332031-4.75c3.054687 3.054687 5.484375 6.59375 7.152344 10.390625-1.367188.828125-2.683594 1.691406-3.957031 2.53125-2.851563 1.878906-5.546876 3.652343-7.753907 4.242187-.234375.0625-.488281.113282-.746093.160156-2.429688-1.449218-4.703126-3.199218-6.761719-5.253906-6.070313-6.074218-9.558594-14.054687-9.730469-21.796875 7.746094.171875 15.726562 3.65625 21.796875 9.726563zm-93.777344 6.464844c6.070313-6.070313 14.050781-9.558594 21.796875-9.730469-.171875 7.746093-3.660156 15.726562-9.730468 21.796875-6.070313 6.074218-14.050782 9.5625-21.796876 9.734375.171876-7.746094 3.660157-15.730469 9.730469-21.800781zm-73.113281 31.097656c3.402344-3.402344 5.601562-7.777344 7.539062-11.632813 1.851563-3.6875 3.765626-7.5 5.988282-8.785156 2.144531-1.238281 6.359375-1.003906 10.4375-.777344 4.34375.242188 9.269531.515625 13.980468-.746093 4.550782-1.214844 8.40625-3.75 12.132813-6.203126 1.378906-.910156 2.78125-1.828124 4.136719-2.609374-5.15625 9.226562-7.054688 19.722656-5.105469 29.789062.582031 3.003906 2.929687 5.355469 5.9375 5.9375 2.605469.503906 5.242187.75 7.878906.75 11.867188 0 23.722657-5.011719 32.855469-14.148438 3.769531-3.765624 6.816406-8 9.117188-12.503906.511718.140625.972656.304688 1.335937.515625 2.222656 1.285157 4.136719 5.09375 5.988281 8.78125 1.9375 3.859375 4.136719 8.230469 7.539063 11.632813.308593.308594.628906.609375.957031.90625-.988281 1.832031-1.984375 3.433594-3.070312 4.515625-1.691407 1.695312-4.640626 3.175781-7.761719 4.742187-3.289063 1.65625-6.972657 3.515625-10.105469 6.144532h-63.324219l-5.941406-11.886719c-1.851563-3.703125-6.355469-5.207031-10.0625-3.351563-3.707031 1.851563-5.207031 6.355469-3.355469 10.058594l2.589844 5.179688h-40.902344c.140625-1.089844.382813-2.066407.796875-2.78125 1.285157-2.222657 5.097657-4.136719 8.785157-5.988282 3.859374-1.941406 8.230468-4.136718 11.632812-7.539062zm-136.496094-104.964844h128.21875l-3.386718 49.128906h-48.679688l4.347656-23.183594c.761719-4.070312-1.917968-7.988281-5.988281-8.75-4.074219-.765624-7.992187 1.917969-8.753906 5.988282l-4.867188 25.945312h-57.5zm15 217.46875-10.578125-153.339844h53.65625l-25.386719 135.410156c-.765624 4.070313 1.917969 7.988282 5.988282 8.753907.46875.085937.933594.128906 1.390625.128906 3.539062 0 6.6875-2.515625 7.363281-6.121094l25.90625-138.171875h50.457031l-2.3125 33.238282c-1.058593.574218-2.191406 1.148437-3.355469 1.730468-5.394531 2.710938-11.503906 5.78125-15.035156 11.878906-1.917968 3.320313-2.660156 6.871094-2.894531 10.296876h-12.042969c-2.308594 0-4.488281 1.066406-5.910156 2.886718-1.421875 1.820313-1.925781 4.191406-1.363281 6.433594l19.492187 77.976562c.804688 3.210938 2.082032 6.195313 3.742188 8.898438zm399.078125 0h-283.09375c-7.605469 0-14.207031-5.15625-16.054687-12.535156l-17.164063-68.660156h238.894531c4.140626 0 7.5-3.355469 7.5-7.5 0-4.140626-3.359374-7.5-7.5-7.5h-16.574218c.144531-2.085938-.578125-4.222657-2.171875-5.816407-2.929688-2.933593-7.679688-2.933593-10.605469 0l-5.820312 5.816407h-37.035157c.097657-.09375.203125-.179688.300781-.277344 3.402344-3.402344 5.601563-7.773438 7.539063-11.632813 1.851563-3.6875 3.769531-7.496093 5.988281-8.78125 2.144532-1.242187 6.359375-1.007812 10.4375-.78125 4.347656.242188 9.269532.515625 13.984375-.742187 4.550781-1.21875 8.402344-3.753906 12.128907-6.207032 3.488281-2.296874 7.097656-4.675781 9.800781-4.675781s6.316406 2.378907 9.804687 4.675781c3.726563 2.453126 7.578125 4.988282 12.128906 6.207032 4.714844 1.257812 9.636719.984375 13.980469.742187 4.082031-.226562 8.296875-.460937 10.445313.78125 2.21875 1.285157 4.132812 5.097657 5.988281 8.78125 1.9375 3.859375 4.132813 8.230469 7.535156 11.632813.097657.097656.199219.183594.300781.277344h-16.09375c-4.140624 0-7.5 3.355468-7.5 7.5 0 4.140624 3.359376 7.5 7.5 7.5h78.570313l-17.164063 68.660156c-1.84375 7.378906-8.445312 12.535156-16.050781 12.535156zm0 0"/></svg>