<?xml version="1.0" encoding="UTF-8"?>
<svg xmlns="http://www.w3.org/2000/svg" viewBox="0 0 512 512" width="512" height="512"><g id="outline"><path d="M64,88a32.036,32.036,0,0,0,32,32c.342,0,.68-.015,1.02-.026a31.989,31.989,0,0,0,50.133,33.646L161.079,168H88a8,8,0,0,0-5.657,13.657L200,299.314V448H184a40.045,40.045,0,0,0-40,40,8,8,0,0,0,8,8H296a8,8,0,0,0,8-8,40.045,40.045,0,0,0-40-40H248V299.314l74.341-74.342-2.185,30.6a59.99,59.99,0,0,0,35.99,59.452V417.754l-2.658.664A38.682,38.682,0,0,0,324.146,456a8,8,0,0,0,8,8h96a8,8,0,0,0,8-8A38.683,38.683,0,0,0,406.8,418.418l-2.656-.664V315.025a59.99,59.99,0,0,0,35.989-59.452L428.125,87.43A8,8,0,0,0,420.146,80H406.858l7.94-41.022,42.517-7.087-2.63-15.782-48,8a8,8,0,0,0-6.539,6.371L390.561,80H375.327A48,48,0,1,0,328,120c.616,0,1.229-.038,1.844-.061L326.411,168H183.352l-26.131-26.982A31.979,31.979,0,0,0,128,96c-.342,0-.68.015-1.02.026a31.992,31.992,0,0,0-47.587-35.37L61.747,42.435,50.253,53.565,68.231,72.129A31.79,31.79,0,0,0,64,88Zm112.575,96,18.289,18.885a67.74,67.74,0,0,0-15.488,2.025l-40.922,10.23L107.314,184Zm57.768,106.343A8,8,0,0,0,232,296V456a8,8,0,0,0,8,8h24a24.042,24.042,0,0,1,22.629,16H161.371A24.042,24.042,0,0,1,184,464h24a8,8,0,0,0,8-8V296a8,8,0,0,0-2.343-5.657l-62.009-62.009,31.609-7.9a51.25,51.25,0,0,1,31.653,2.148,67.274,67.274,0,0,0,50.181,0l1.441-.577a51.42,51.42,0,0,1,29.26-2.686l7.981,1.6ZM412.7,96l2.531,35.442L401.322,138.4a16.811,16.811,0,0,1-6.1,1.706L403.761,96Zm-32.753,38.853a32.925,32.925,0,0,0-28.421.441l-6.985,3.493L347.594,96h39.87ZM328,104a31.964,31.964,0,1,1,30.992-24H340.146a8,8,0,0,0-7.98,7.43l-1.172,16.415C330,103.937,329,104,328,104Zm15.213,53.337,15.465-7.732a16.89,16.89,0,0,1,16.884,1.051c.388.258.786.492,1.182.732l-24.6,127.092,15.708,3.04,24.273-125.409a32.81,32.81,0,0,0,16.35-3.405l7.985-3.993,7.714,108a44.037,44.037,0,0,1-30.482,45.171,8,8,0,0,0-5.548,7.615V424a8,8,0,0,0,6.059,7.761l8.716,2.179A22.711,22.711,0,0,1,418.7,448H341.591a22.707,22.707,0,0,1,15.778-14.06l8.717-2.179a8,8,0,0,0,6.06-7.761V309.5a8,8,0,0,0-5.549-7.615,44.037,44.037,0,0,1-30.482-45.171l3.5-49.014,26.042-26.041A8,8,0,0,0,360,168H342.451ZM340.686,184l-23.315,23.316-18.441-3.689a67.412,67.412,0,0,0-38.341,3.521l-1.441.577a51.318,51.318,0,0,1-36.775.566L198.848,184ZM144,128a16,16,0,1,1-16-16A16.019,16.019,0,0,1,144,128ZM96,72A16,16,0,1,1,80,88,16.019,16.019,0,0,1,96,72Z"/></g></svg>
