<?xml version="1.0"?>
<svg xmlns="http://www.w3.org/2000/svg" viewBox="0 0 512 512" width="512" height="512"><g id="outline"><circle cx="368" cy="136" r="8"/><circle cx="320" cy="120" r="8"/><circle cx="272" cy="88" r="8"/><circle cx="264" cy="136" r="8"/><circle cx="224" cy="96" r="8"/><circle cx="192" cy="80" r="8"/><circle cx="160" cy="104" r="8"/><circle cx="192" cy="128" r="8"/><circle cx="120" cy="136" r="8"/><circle cx="56" cy="432" r="8"/><circle cx="248" cy="432" r="8"/><path d="M176,400H128a8,8,0,0,0,0,16h16v40a8,8,0,0,0,16,0V416h16a8,8,0,0,0,0-16Z"/><path d="M448,96a32.1,32.1,0,0,0,5.667-.5,24,24,0,1,0,25.592-38.378,31.8,31.8,0,0,0-7.41-14.459A23.458,23.458,0,0,0,472,40a24,24,0,0,0-48,0,23.475,23.475,0,0,0,.151,2.664A32,32,0,0,0,448,96ZM437.957,51.549a8,8,0,0,0,2.513-8.89,8,8,0,1,1,15.06,0,8,8,0,0,0,2.513,8.888A15.945,15.945,0,0,1,464,64a8,8,0,0,0,8,8,8,8,0,1,1-7.386,11.075,7.993,7.993,0,0,0-10.463-4.3,16,16,0,0,1-16.194-27.225Z"/><path d="M480,240H456V187.313l29.657-29.656a8,8,0,0,0-11.314-11.314l-32,32A8,8,0,0,0,440,184v56H409.444l5.5-33.029a23.974,23.974,0,0,0,11.981-37.7,31.958,31.958,0,0,0-12.961-46.039A32.008,32.008,0,0,0,373.4,81.8a40.021,40.021,0,0,0-46.181-24.829,32.043,32.043,0,0,0-45.1-21.826,39.968,39.968,0,0,0-69.637,2.5,40.027,40.027,0,0,0-50.51,7.9A31.978,31.978,0,0,0,112,72a32.007,32.007,0,0,0-31.834,35.263,39.973,39.973,0,0,0-12.849,64.584,23.978,23.978,0,0,0,13.735,35.124L107.89,368H48a8,8,0,0,0-8,8,16.019,16.019,0,0,1-16,16,8,8,0,0,0-8,8v64a8,8,0,0,0,8,8,16.019,16.019,0,0,1,16,16,8,8,0,0,0,8,8H256a8,8,0,0,0,8-8,16.019,16.019,0,0,1,16-16,8,8,0,0,0,8-8V448h51.506l4.543,40.883A8,8,0,0,0,352,496H464a8,8,0,0,0,7.951-7.117l22.894-206.047A23.985,23.985,0,0,0,480,240ZM465.74,399.9c-3.25.07-6.5.105-9.74.105a449.864,449.864,0,0,1-107.163-12.909l-3.52-31.683a459.726,459.726,0,0,0,121.131,38.118ZM343.224,336.578,337.827,288H478.173l-9.955,89.6A443.846,443.846,0,0,1,343.224,336.578ZM488,264a8.009,8.009,0,0,1-8,8H336a8,8,0,0,1,0-16H480A8.009,8.009,0,0,1,488,264ZM348.04,240l3.2-32h47.316l-5.333,32ZM91.2,120.48a8,8,0,0,0,5.873-10.723,16,16,0,0,1,21.813-20.2,8,8,0,0,0,10.668-10.668A15.831,15.831,0,0,1,128,72a16,16,0,0,1,28.892-9.474A8,8,0,0,0,170.5,61.341a23.991,23.991,0,0,1,39.769-4.9,8,8,0,0,0,14-4.013,24,24,0,0,1,46.824-2.972,8,8,0,0,0,13.436,3.4A15.994,15.994,0,0,1,312,64a16.131,16.131,0,0,1-.292,3.035A8,8,0,0,0,323.68,75.4a24,24,0,0,1,36.277,19.215,8,8,0,0,0,13.342,5.491,16,16,0,0,1,22.581,22.607,8,8,0,0,0,5.34,13.338,15.96,15.96,0,0,1,12.225,24.578A23.96,23.96,0,0,0,408,160H88a23.876,23.876,0,0,0-8.384,1.514A23.985,23.985,0,0,1,91.2,120.48ZM88,176H408a8,8,0,0,1,0,16H88a8,8,0,0,1,0-16ZM265.879,383.506A15.893,15.893,0,0,1,264,376a8,8,0,0,0-8-8h-26.4l-5.334-160h47.458ZM176.84,368l-16-160h47.422L213.6,368Zm-79.4-160H144.76l16,160H124.11ZM32,457.012V406.988A32.121,32.121,0,0,0,54.988,384H80v96H54.988A32.121,32.121,0,0,0,32,457.012ZM96,480V384H208v96Zm176-22.988A32.121,32.121,0,0,0,249.012,480H224V384h25.012A32.121,32.121,0,0,0,272,406.988Zm9.6-64.851L287.738,208H335.16l-3.235,32.353a23.98,23.98,0,0,0-10.77,42.483l3.432,30.892L312.76,432H288V400A8,8,0,0,0,281.6,392.161ZM328.84,432l4.21-42.1,4.678,42.1Zm30.32,48-8.445-76A466.212,466.212,0,0,0,456,416c2.644,0,5.3-.041,7.96-.085L456.84,480Z"/><path d="M48,88A32.04,32.04,0,0,0,79.943,57.922,23.988,23.988,0,1,0,46.078,24.057,32,32,0,0,0,48,88Zm0-48c.425,0,.888.022,1.414.067a8.007,8.007,0,0,0,7.636-4.009A7.993,7.993,0,1,1,67.942,46.95a8,8,0,0,0-4.009,7.636c.045.526.067.989.067,1.414A16,16,0,1,1,48,40Z"/><path d="M48,352a31.894,31.894,0,0,0,12.926-2.72,24,24,0,1,0,17.38-44.44,24,24,0,1,0-45.991-12.733A32,32,0,0,0,48,352Zm-5.288-47.1a8,8,0,0,0,5.328-8.214c-.019-.226-.04-.453-.04-.684a8,8,0,0,1,16,0,7.882,7.882,0,0,1-2.044,5.314,8,8,0,0,0-.677,9.791,16.012,16.012,0,0,1,1.823,3.607,8,8,0,0,0,8.222,5.328c.224-.019.448-.04.676-.04a8,8,0,0,1,0,16,7.882,7.882,0,0,1-5.308-2.038,8,8,0,0,0-9.786-.669A16,16,0,1,1,42.712,304.9Z"/></g></svg>
